# xmcd
#
# Track frame offsets: 
#        150
#        18629
#        44758
#        71643
#        85930
#        103073
#        123107
#        147333
#        167671
#        184582
#        204844
#        217631
#
# Disc length: 3152 seconds
#
# Revision: 1
# Processed by: cddbd v1.5.2PL0 Copyright (c) Steve Scherf et al.
# Submitted via: ExactAudioCopy v1.3
#
DISCID=a30c4e0c
DTITLE=謝銘祐 - 台南
DYEAR=2012
DGENRE=Pop
TTITLE0=我今仔日無想欲飛
TTITLE1=老城門
TTITLE2=行
TTITLE3=鳳凰花飛啊飛
TTITLE4=五條港邊
TTITLE5=戀戀大員
TTITLE6=金小姐
TTITLE7=阮兜住伫屎溝墘
TTITLE8=丸奇活動中心
TTITLE9=土
TTITLE10=信守的明信片
TTITLE11=老朋友
EXTD=
EXTT0=
EXTT1=
EXTT2=
EXTT3=
EXTT4=
EXTT5=
EXTT6=
EXTT7=
EXTT8=
EXTT9=
EXTT10=
EXTT11=
PLAYORDER=
